<?xml version="1.0" standalone="no"?>
<!DOCTYPE svg PUBLIC "-//W3C//DTD SVG 20010904//EN"
 "http://www.w3.org/TR/2001/REC-SVG-20010904/DTD/svg10.dtd">
<svg version="1.0" xmlns="http://www.w3.org/2000/svg"
 width="1280.000000pt" height="898.000000pt" viewBox="0 0 1280.000000 898.000000"
 preserveAspectRatio="xMidYMid meet">
<metadata>
Created by potrace 1.15, written by Peter Selinger 2001-2017
</metadata>
<g transform="translate(0.000000,898.000000) scale(0.100000,-0.100000)"
fill="#000000" stroke="none">
<path d="M7450 8958 c-96 -49 -120 -178 -48 -255 12 -13 20 -24 17 -26 -2 -1
-28 -14 -58 -27 -29 -14 -64 -38 -76 -55 -33 -44 -55 -117 -55 -185 0 -48 4
-64 25 -89 14 -16 34 -33 44 -36 14 -4 20 -20 25 -63 9 -77 27 -142 49 -172
17 -24 21 -25 162 -28 80 -3 160 -1 179 2 34 6 35 8 45 74 6 37 12 86 13 110
3 43 4 44 58 65 l55 22 0 75 c0 57 -7 93 -28 151 -32 88 -72 134 -129 151 -34
10 -38 14 -32 32 4 12 8 46 8 76 2 149 -131 242 -254 178z"/>
<path d="M820 8748 c-80 -55 -99 -139 -48 -215 l27 -41 -57 -28 c-75 -38 -112
-103 -120 -206 l-5 -69 45 -42 c42 -39 45 -47 56 -121 7 -43 21 -94 32 -111
20 -32 23 -33 110 -40 49 -4 125 -4 169 0 l80 7 10 66 c6 37 12 85 14 106 2
37 5 40 45 54 64 21 77 47 63 128 -25 143 -76 225 -153 250 -31 10 -32 13 -17
67 18 68 -28 169 -91 202 -44 23 -121 19 -160 -7z"/>
<path d="M10605 8628 c-48 -17 -94 -56 -116 -100 -32 -62 -24 -150 19 -208
l31 -43 -50 -23 c-84 -39 -110 -63 -142 -133 -24 -51 -32 -82 -35 -147 -4 -73
-2 -85 19 -113 13 -17 38 -40 56 -51 27 -16 33 -25 33 -52 l-1 -33 -22 26
c-17 18 -37 28 -73 32 -27 4 -97 14 -156 23 -105 16 -107 17 -131 53 -23 35
-126 101 -158 101 -34 1 -39 15 -19 55 28 57 28 120 0 199 -42 117 -117 182
-225 193 -105 11 -203 -45 -251 -143 -23 -48 -26 -63 -21 -121 4 -56 11 -74
46 -126 23 -33 40 -60 39 -62 -18 -11 -98 -34 -109 -31 -8 3 -156 26 -329 51
-173 25 -322 48 -330 50 -8 3 -25 22 -37 43 -16 28 -38 47 -80 68 -32 16 -60
30 -62 31 -2 2 1 8 7 15 5 7 15 33 22 57 10 37 8 53 -9 111 -45 149 -189 202
-295 110 -72 -64 -87 -159 -37 -245 l28 -50 -56 -28 c-58 -28 -77 -29 -191
-10 -26 4 -32 2 -25 -6 6 -6 39 -14 73 -17 35 -4 61 -10 60 -13 -2 -3 -15 -28
-29 -56 -29 -54 -49 -134 -49 -193 0 -42 38 -107 69 -117 15 -4 22 -18 26 -53
28 -219 40 -246 113 -255 131 -17 178 -19 255 -12 l84 7 17 92 c9 51 16 108
16 127 0 33 3 37 42 48 23 7 53 20 66 29 23 15 24 19 20 106 -3 50 -9 100 -13
111 -7 16 -6 18 6 9 8 -6 133 -28 279 -49 146 -21 266 -39 268 -40 1 -1 -9
-22 -22 -46 -13 -24 -29 -61 -36 -81 l-12 -38 -224 0 c-204 0 -247 -5 -215
-24 5 -3 7 -16 4 -28 -12 -42 16 -48 218 -48 141 0 188 3 192 13 2 6 7 -20 11
-59 6 -66 10 -73 49 -111 23 -22 51 -45 63 -51 17 -9 23 -27 33 -99 20 -143
40 -215 69 -250 26 -30 31 -32 147 -43 110 -11 264 -8 371 6 l41 6 17 98 c9
55 16 130 16 169 l0 69 33 7 c17 4 56 18 84 32 63 29 68 43 60 152 l-5 76 113
-3 c122 -3 145 5 145 52 0 12 5 34 12 48 12 24 13 20 29 -57 23 -115 38 -132
119 -142 75 -9 268 -9 333 1 l45 7 6 52 c4 29 9 88 13 133 l5 81 53 17 c75 23
90 44 88 120 -1 66 -49 228 -83 284 -22 36 -67 67 -122 84 -43 13 -43 13 -23
61 20 49 19 86 -6 154 -44 117 -157 178 -264 141z"/>
<path d="M4325 8575 c-107 -54 -144 -192 -79 -302 29 -51 29 -50 2 -57 -13 -3
-45 -19 -71 -36 -39 -25 -54 -43 -80 -98 -26 -56 -32 -82 -35 -159 l-4 -91 44
-44 44 -45 13 -109 c12 -104 29 -162 54 -183 28 -22 302 -41 364 -25 18 5 24
19 37 92 9 48 16 108 16 134 0 46 1 47 39 58 53 14 87 43 95 80 8 43 -10 159
-39 257 -28 92 -62 134 -132 165 l-41 18 14 30 c9 16 18 45 21 63 7 43 -20
140 -53 190 -43 66 -142 95 -209 62z"/>
<path d="M12115 8406 c-42 -18 -92 -78 -105 -126 -14 -50 -5 -100 26 -146 31
-45 30 -51 -5 -59 -102 -22 -180 -134 -189 -269 l-5 -74 49 -49 c49 -48 49
-49 61 -140 12 -99 34 -158 64 -174 31 -16 238 -32 321 -25 l77 8 11 51 c7 29
14 84 17 124 l6 72 52 15 c78 23 89 40 83 134 -5 94 -50 231 -87 269 -14 14
-50 37 -78 50 -50 23 -52 25 -39 46 36 57 22 165 -30 235 -49 64 -154 91 -229
58z"/>
<path d="M5409 8314 c-126 -38 -177 -195 -98 -304 33 -46 32 -52 -21 -69 -52
-16 -107 -66 -135 -121 -27 -54 -24 -52 -150 -75 -195 -35 -185 -31 -185 -76
0 -22 -5 -49 -10 -60 -10 -18 -6 -19 127 -21 l138 -2 -118 -3 c-93 -3 -119 -7
-124 -18 -3 -9 1 -22 8 -31 11 -13 37 -15 163 -13 196 3 209 -3 225 -106 20
-125 33 -170 56 -199 22 -27 30 -29 127 -38 60 -6 149 -6 213 -1 l110 8 12 60
c7 33 14 93 15 133 l3 73 58 24 c74 30 87 41 88 79 l1 31 7 -30 6 -30 405 -1
c334 -2 409 1 428 12 29 19 28 13 -8 -38 -46 -66 -72 -151 -78 -255 l-5 -93
37 -45 c21 -25 51 -52 67 -60 21 -11 29 -23 29 -41 0 -17 -4 -24 -12 -21 -33
12 -788 271 -825 283 -40 12 -63 4 -27 -10 12 -5 14 -9 5 -20 -26 -32 -2 -50
129 -95 482 -167 702 -241 714 -241 11 0 14 -9 10 -37 l-4 -38 14 30 c15 29
15 30 16 5 1 -48 30 -165 43 -175 7 -5 16 -17 19 -26 11 -29 133 -44 360 -44
113 0 209 3 212 6 13 12 46 215 46 280 0 62 2 69 20 69 33 0 133 42 157 66 19
19 23 33 23 86 0 112 -57 321 -106 393 -13 20 -24 37 -24 38 0 1 81 2 180 2
135 0 182 3 192 13 11 11 10 16 -6 28 -15 11 -58 14 -190 14 -94 0 -185 -4
-201 -8 -33 -10 -58 -5 -49 9 3 5 101 9 220 9 153 0 214 3 214 11 0 9 -66 10
-252 5 -139 -4 -260 -5 -270 -1 -15 6 -14 12 9 62 30 66 28 133 -7 227 -29 75
-76 128 -143 156 -53 23 -139 31 -184 16 -17 -6 -23 -3 -23 8 0 10 9 16 23 16
12 0 29 5 37 10 13 9 13 10 0 10 -8 0 -292 -52 -630 -116 -338 -63 -629 -118
-646 -121 -22 -4 -40 2 -69 21 -21 14 -55 31 -76 38 -44 13 -43 12 -27 41 26
50 28 90 6 157 -26 82 -83 141 -151 158 -56 14 -60 14 -118 -4z m1527 -328
c-30 -45 -47 -117 -39 -174 3 -24 23 -71 44 -105 20 -34 34 -65 31 -69 -4 -4
-243 -10 -532 -14 l-525 -7 -27 94 c-14 52 -22 96 -17 99 4 3 234 48 511 99
277 51 519 98 538 105 19 7 36 12 38 11 2 -2 -8 -19 -22 -39z m-1823 -403 c-7
-2 -19 -2 -25 0 -7 3 -2 5 12 5 14 0 19 -2 13 -5z"/>
<path d="M1414 8075 c11 -8 14 -15 7 -15 -8 0 -11 -10 -9 -27 2 -23 10 -30 43
-39 22 -7 236 -44 476 -83 240 -39 463 -76 496 -82 l60 -11 -5 -67 c-6 -84 8
-129 59 -198 l39 -52 -38 -12 c-181 -58 -272 -198 -272 -417 0 -84 0 -85 40
-132 22 -26 53 -53 68 -59 28 -12 29 -17 50 -146 25 -152 37 -188 72 -233 24
-31 32 -33 120 -43 117 -14 456 -5 476 12 8 6 14 28 14 48 0 20 5 56 11 81 6
25 12 85 13 134 l1 89 50 17 c28 10 70 28 95 41 25 12 52 22 61 21 9 -2 101
16 205 38 104 23 482 104 839 181 358 77 673 146 701 154 58 17 73 37 42 59
-11 8 -17 19 -13 25 3 6 4 11 0 11 -3 0 -404 -85 -891 -190 -487 -104 -886
-190 -888 -190 -2 0 -6 26 -9 59 -8 74 -49 205 -93 298 -39 82 -81 117 -174
149 -30 10 -57 20 -59 21 -2 1 6 26 19 55 17 40 21 65 18 109 -3 41 -1 56 7
49 11 -9 905 -160 948 -160 13 0 32 9 42 20 16 18 16 21 2 43 -19 29 25 20
-561 117 -264 44 -480 81 -481 82 -1 2 -11 20 -24 40 -29 48 -100 94 -167 108
-71 15 -148 -1 -212 -43 l-47 -33 -555 93 c-305 50 -564 92 -575 92 -20 0 -20
0 -1 -14z"/>
<path d="M290 7926 l-285 -122 -3 -56 -3 -57 93 38 c221 92 504 214 516 223
19 17 15 59 -7 65 -11 3 -21 11 -23 18 -2 8 -97 -28 -288 -109z"/>
<path d="M11163 7624 c10 -10 657 -71 657 -62 0 4 -1 8 -2 8 -2 0 -140 13
-308 30 -321 31 -357 34 -347 24z"/>
<path d="M11197 7593 c-14 -13 -6 -34 16 -42 33 -13 600 -66 620 -58 9 3 17
15 17 26 0 23 18 21 -350 56 -293 28 -294 28 -303 18z"/>
<path d="M8750 7529 c0 -4 5 -11 10 -14 6 -3 8 -16 4 -29 -3 -14 0 -27 9 -35
20 -16 474 -181 499 -181 16 0 19 6 16 37 -3 43 28 28 -320 153 -120 42 -218
74 -218 69z"/>
<path d="M12615 7473 c6 -6 39 -16 75 -22 36 -7 75 -15 88 -18 12 -3 22 -1 22
4 0 5 -29 15 -65 21 -36 7 -79 15 -97 19 -22 4 -30 2 -23 -4z"/>
<path d="M11480 7420 c-162 -76 -210 -271 -101 -408 33 -42 39 -62 19 -62 -23
0 -120 -50 -160 -82 -47 -36 -101 -140 -118 -225 -7 -29 -10 -87 -8 -128 2
-41 -1 -75 -6 -75 -5 0 -251 122 -548 271 -297 148 -545 268 -551 266 -7 -2
-2 -9 11 -16 19 -10 21 -15 11 -27 -10 -12 -9 -18 2 -29 8 -7 281 -147 608
-310 414 -206 596 -293 601 -284 5 7 11 -6 15 -30 4 -23 4 -45 1 -48 -3 -3
-258 38 -568 90 -1419 242 -3046 517 -3057 517 -7 0 -10 -4 -7 -9 3 -4 28 -11
55 -15 28 -4 209 -33 403 -66 890 -151 1903 -323 2003 -340 61 -10 340 -58
620 -105 599 -100 565 -94 565 -106 0 -6 -4 -7 -10 -4 -5 3 -232 44 -502 90
-271 46 -682 115 -913 155 -596 101 -1539 261 -1885 319 -300 51 -336 53 -295
11 16 -16 74 -29 285 -64 146 -25 798 -136 1450 -246 652 -111 1330 -226 1507
-255 177 -30 332 -55 345 -55 21 0 25 -8 41 -77 12 -53 27 -89 46 -111 24 -28
36 -33 102 -42 129 -16 474 -9 494 12 10 10 36 193 38 272 l2 79 68 22 c109
37 127 57 127 137 0 79 -24 181 -72 305 -33 86 -47 109 -85 142 -39 35 -133
81 -163 81 -14 0 -12 13 10 61 25 57 25 120 -1 198 -27 78 -71 137 -132 175
-65 40 -179 47 -247 16z"/>
<path d="M0 6965 c0 -38 3 -45 23 -50 12 -2 488 -43 1057 -90 569 -47 1050
-88 1068 -91 29 -6 56 -24 35 -24 -4 0 -239 -54 -521 -119 l-512 -118 -38 35
c-74 70 -198 108 -300 91 -142 -22 -247 -115 -295 -259 -3 -10 -51 -26 -153
-49 -82 -18 -197 -44 -256 -58 l-108 -25 0 -45 c0 -38 3 -44 18 -39 9 3 114
28 232 55 118 28 224 53 236 57 19 5 22 0 27 -40 8 -56 37 -115 88 -180 l39
-49 -77 -31 c-150 -61 -209 -113 -264 -231 -51 -110 -72 -214 -67 -329 l4 -93
47 -55 c26 -30 67 -66 91 -79 43 -22 44 -24 51 -83 3 -34 14 -104 25 -156 10
-52 17 -96 16 -97 0 -1 -104 -51 -231 -112 l-230 -111 -3 -45 c-2 -25 0 -45 5
-45 4 0 113 50 242 112 165 78 236 107 239 98 3 -7 18 -26 33 -43 16 -16 29
-36 29 -43 0 -27 158 -44 410 -44 l195 -1 430 -419 c444 -433 545 -529 545
-513 0 5 -134 139 -297 298 -517 502 -643 626 -643 634 0 5 30 11 66 14 74 5
84 14 84 69 0 20 7 70 16 110 9 40 16 124 17 186 l2 114 70 22 c93 30 151 61
171 91 34 51 5 291 -51 437 -4 11 -1 16 9 15 14 -2 142 118 695 646 180 172
209 207 168 207 -13 0 -47 -25 -89 -67 -37 -37 -71 -64 -75 -60 -4 4 31 46 77
92 47 47 81 85 76 85 -9 0 -88 -74 -605 -568 l-285 -272 -27 57 c-47 105 -115
162 -244 205 -38 12 -71 24 -73 24 -2 1 9 26 24 56 42 82 44 170 6 276 -27 75
-28 82 -11 77 24 -8 1156 251 1188 272 21 14 23 20 17 66 -6 54 -32 86 -70 87
-11 0 -531 43 -1157 95 -625 52 -1149 95 -1163 95 -24 0 -26 -3 -26 -45z"/>
<path d="M5383 6996 c-153 -50 -252 -177 -261 -337 -5 -94 13 -163 66 -244 21
-33 41 -65 45 -71 4 -6 -22 -22 -66 -39 -187 -73 -268 -166 -329 -382 -30
-108 -33 -300 -4 -332 11 -12 16 -21 13 -21 -3 0 -375 234 -825 520 -451 286
-827 523 -837 526 -48 19 13 -24 229 -161 229 -145 235 -150 221 -171 -16 -25
-42 -7 695 -474 184 -117 400 -254 480 -305 80 -51 154 -97 165 -103 18 -9 22
-27 33 -129 19 -176 46 -304 68 -322 11 -9 25 -28 31 -43 8 -18 20 -28 34 -28
13 0 19 -5 16 -12 -2 -7 -102 -166 -220 -353 l-216 -340 26 -27 c14 -15 30
-25 34 -22 12 7 459 713 459 725 0 7 11 9 33 5 58 -11 400 -19 510 -11 86 5
107 10 107 22 0 12 4 11 18 -5 20 -24 996 -642 1013 -642 4 0 5 9 2 20 -3 11
-1 20 4 20 6 0 9 -10 8 -22 -1 -13 1 -56 5 -96 6 -61 12 -78 34 -100 15 -15
40 -43 56 -63 16 -19 54 -48 84 -63 50 -25 56 -32 56 -60 0 -17 9 -85 20 -151
10 -66 16 -123 12 -127 -4 -3 -88 -36 -187 -72 -99 -36 -524 -193 -944 -349
l-764 -284 -14 -47 c-8 -27 -12 -51 -9 -54 6 -6 300 101 446 162 91 38 1485
556 1496 556 1 0 8 -24 14 -52 16 -67 35 -105 59 -117 10 -6 21 -22 25 -35 8
-31 13 -32 171 -51 234 -27 746 -13 781 22 8 8 14 33 14 56 0 23 9 88 20 145
13 65 20 149 21 230 1 70 4 117 6 104 3 -17 9 -21 26 -17 12 3 279 57 592 119
314 63 577 117 586 120 12 5 19 -8 33 -69 13 -55 26 -85 47 -106 16 -16 29
-33 29 -37 1 -36 164 -62 391 -62 l137 0 16 -47 c8 -27 33 -104 54 -173 l40
-126 -24 -69 c-18 -54 -24 -92 -24 -165 0 -156 31 -242 140 -392 33 -45 59
-82 57 -84 -1 -1 -44 -16 -96 -33 -167 -56 -321 -146 -393 -230 -45 -53 -119
-196 -157 -303 -46 -132 -61 -231 -61 -399 l0 -149 38 -43 c21 -23 43 -54 49
-68 14 -32 81 -88 148 -124 56 -29 63 -41 64 -102 1 -23 10 -114 22 -203 11
-89 18 -164 16 -167 -3 -2 -783 167 -1733 376 -3568 785 -3470 763 -3453 747
4 -5 162 -40 1279 -285 250 -55 885 -194 1410 -310 525 -115 1119 -246 1320
-290 994 -218 1146 -252 1165 -261 26 -14 192 -49 -1395 300 -897 198 -1677
370 -2680 590 -503 110 -957 210 -1009 222 -91 21 -94 21 -108 3 -18 -26 -15
-27 157 -64 80 -18 296 -65 480 -106 184 -40 706 -155 1160 -255 884 -194
1221 -268 1750 -385 184 -41 574 -126 865 -190 292 -64 588 -129 660 -145 95
-21 132 -26 137 -17 10 17 13 10 32 -92 22 -119 38 -159 70 -171 18 -6 27 -19
32 -44 3 -19 11 -39 18 -44 12 -10 96 -27 230 -47 48 -8 90 -16 92 -18 2 -2
-183 -86 -412 -188 l-416 -184 134 -3 133 -3 95 45 c52 24 220 99 374 167 153
67 284 128 291 136 11 10 73 13 282 13 248 1 467 11 479 23 3 3 12 51 19 107
8 56 17 105 19 109 3 4 15 54 27 112 15 72 24 157 28 278 l6 174 84 18 c125
27 238 73 307 125 44 32 59 115 51 278 -7 152 -34 285 -104 501 -64 199 -109
301 -159 361 -68 84 -223 176 -369 220 -33 10 -61 19 -63 19 -1 1 13 28 32 60
20 32 43 80 51 106 22 64 45 221 35 234 -4 6 -11 26 -15 45 -19 99 -90 280
-134 346 -79 116 -208 204 -351 240 -88 22 -250 14 -339 -17 -87 -30 -206
-113 -261 -181 l-45 -56 -42 132 c-23 72 -43 134 -43 137 0 3 66 11 146 17 81
7 150 15 155 18 5 3 9 24 9 47 1 23 9 80 19 127 13 65 19 80 25 63 4 -13 11
-23 16 -23 7 0 406 -171 850 -365 340 -148 1331 -575 1335 -575 3 0 5 17 5 38
0 33 -4 41 -27 51 -32 15 -1739 755 -2005 870 l-178 76 0 40 c0 22 4 46 9 54
7 11 183 -4 1067 -93 583 -58 1076 -109 1097 -112 20 -3 37 -2 37 3 0 5 -51
15 -112 21 -1033 103 -2022 203 -2056 208 l-43 5 3 51 3 51 75 22 c81 23 169
66 196 96 43 48 23 263 -43 462 -32 97 -34 110 -20 118 9 5 107 118 219 251
112 133 236 281 276 328 100 115 109 140 55 161 -15 6 -22 13 -17 21 24 41
-69 -64 -309 -349 -149 -178 -274 -323 -277 -323 -3 0 -16 20 -28 44 -13 24
-36 55 -50 69 -45 43 -136 92 -214 117 -40 12 -74 23 -75 25 -2 1 11 27 27 57
20 38 33 80 40 130 9 72 8 80 -24 169 -18 52 -41 109 -49 126 l-17 31 38 6
c20 3 206 31 412 62 418 62 450 68 450 90 0 26 -28 27 -173 4 -78 -12 -171
-26 -207 -31 -36 -5 -94 -13 -130 -19 -36 -5 -132 -19 -215 -31 -82 -11 -162
-27 -177 -34 -22 -10 -28 -10 -32 0 -6 18 -20 15 454 85 434 63 476 71 449 77
-9 2 -139 -15 -290 -38 -151 -22 -355 -53 -455 -68 l-181 -26 -44 32 c-121 89
-282 104 -425 39 -59 -27 -133 -91 -165 -142 -13 -22 -28 -34 -43 -34 -12 0
-107 -13 -212 -29 -104 -17 -432 -66 -729 -111 -297 -44 -572 -85 -610 -91
-71 -11 -71 -11 -117 20 -181 122 -425 91 -576 -74 -33 -36 -68 -65 -78 -65
-10 0 -317 -45 -681 -100 -364 -55 -667 -100 -673 -100 -5 0 -10 17 -10 38 l0
39 55 12 c31 7 86 28 125 47 88 45 95 62 86 223 -3 64 -9 131 -12 150 -5 26
-4 32 6 26 17 -11 690 663 690 691 0 31 -19 44 -46 33 -24 -8 -24 -8 -8 16 9
14 13 25 8 25 -4 0 -159 -151 -345 -336 l-337 -336 -32 99 c-42 126 -59 159
-112 210 -38 37 -154 102 -207 116 -20 5 -19 7 10 66 45 90 49 171 14 292 -15
52 -37 112 -50 134 -32 56 -116 132 -172 156 -61 26 -174 34 -230 15z m4227
-1297 c-14 -112 21 -224 101 -320 22 -26 39 -51 39 -56 0 -6 -19 -15 -42 -22
-66 -20 -193 -89 -241 -132 -52 -45 -114 -158 -149 -269 -19 -64 -23 -96 -23
-216 l0 -141 30 -37 c51 -64 94 -103 135 -121 31 -14 41 -24 44 -49 3 -17 12
-71 20 -121 8 -49 11 -93 8 -96 -4 -4 -205 -45 -447 -93 -242 -48 -449 -90
-460 -93 -20 -6 -20 -5 -1 16 28 31 33 158 12 281 -20 112 -92 332 -146 446
-60 124 -149 193 -318 244 l-72 22 19 26 c32 45 50 100 60 178 9 71 7 81 -23
172 -18 53 -43 116 -55 139 -11 23 -21 45 -21 48 0 3 15 5 33 5 17 0 181 23
362 50 687 105 1062 160 1083 160 12 0 27 7 34 15 21 24 25 17 18 -36z m-2293
-241 c-2 -7 -11 -12 -20 -10 -13 2 -1117 -160 -1284 -189 -60 -11 -63 -12 -63
-40 0 -17 5 -29 13 -29 7 0 222 32 477 70 256 39 543 82 639 96 96 14 184 30
194 36 17 9 19 7 14 -13 -35 -145 -4 -268 101 -402 25 -31 43 -59 41 -61 -2
-2 -40 -19 -84 -36 -165 -65 -257 -143 -320 -269 -39 -78 -85 -240 -85 -297 0
-40 -2 -40 -38 -14 -20 14 -873 555 -988 626 -17 10 -17 14 0 90 9 43 20 116
23 162 3 45 6 82 7 83 3 1 1353 207 1364 208 8 1 12 -5 9 -11z"/>
<path d="M12060 5971 c0 -5 14 -14 32 -22 17 -7 26 -15 20 -17 -41 -13 9 -44
331 -202 188 -94 345 -170 350 -170 4 0 7 14 7 31 0 30 -3 32 -365 210 -201
98 -368 179 -370 179 -3 0 -5 -4 -5 -9z"/>
<path d="M3293 5371 c-345 -55 -608 -308 -669 -641 -17 -95 -17 -165 0 -260
26 -146 80 -252 213 -418 41 -51 74 -94 72 -95 -2 -1 -44 -16 -94 -32 -202
-66 -423 -199 -531 -317 -60 -66 -157 -255 -204 -395 -60 -182 -74 -269 -74
-478 -1 -104 3 -217 7 -250 8 -56 13 -64 63 -110 34 -32 54 -59 54 -72 0 -30
102 -111 205 -163 l80 -40 28 -202 c46 -328 117 -672 158 -768 17 -40 28 -52
52 -58 26 -7 33 -16 49 -62 10 -29 20 -55 22 -57 6 -7 170 -32 321 -50 237
-28 863 -25 1165 5 124 13 228 26 232 30 3 4 11 63 18 132 6 68 13 127 16 131
2 4 16 71 31 150 24 131 27 166 27 389 l1 244 109 28 c198 52 407 156 438 219
40 80 41 300 3 510 -44 234 -182 639 -288 843 -93 180 -323 333 -602 402 -38
9 -71 18 -73 20 -2 1 15 33 37 71 55 91 90 205 101 331 5 56 12 108 16 114 4
6 0 16 -8 22 -8 6 -22 38 -30 71 -27 98 -96 284 -136 360 -56 108 -200 247
-319 308 -51 26 -128 57 -170 68 -88 22 -242 32 -320 20z"/>
<path d="M10610 4141 c0 -35 -37 -28 400 -71 298 -30 906 -91 1485 -150 160
-17 293 -30 298 -30 4 0 7 14 7 30 0 17 -4 30 -9 30 -5 0 -160 16 -343 35
-183 19 -558 57 -833 84 -275 28 -610 62 -745 76 -135 14 -248 25 -252 25 -5
0 -8 -13 -8 -29z"/>
<path d="M1900 1666 c-173 -61 -672 -237 -1107 -391 l-793 -279 0 -46 0 -47
493 174 c270 96 755 267 1077 380 719 252 690 242 690 258 0 23 -22 65 -34 64
-6 0 -153 -51 -326 -113z"/>
<path d="M11820 471 c0 -5 19 -16 43 -24 29 -11 35 -16 20 -16 -32 -1 -29 -25
5 -40 15 -7 185 -69 377 -137 193 -69 385 -138 428 -154 101 -38 109 -38 105
2 l-3 31 -325 117 c-509 182 -650 230 -650 221z m150 -63 c10 -6 7 -7 -10 -2
-14 3 -32 11 -40 16 -10 6 -7 7 10 2 14 -3 32 -11 40 -16z m155 -54 c24 -11
25 -13 5 -8 -14 4 -38 13 -55 20 -24 11 -25 13 -5 8 14 -4 39 -13 55 -20z
m113 -39 c29 -9 52 -19 49 -21 -5 -5 -127 36 -127 43 0 3 6 3 13 1 6 -3 36
-13 65 -23z m152 -57 c10 -6 7 -7 -10 -2 -14 3 -32 11 -40 16 -10 6 -7 7 10 2
14 -3 32 -11 40 -16z m140 -50 c10 -6 7 -7 -10 -2 -14 3 -32 11 -40 16 -10 6
-7 7 10 2 14 -3 32 -11 40 -16z m140 -48 c8 -5 11 -10 5 -10 -5 0 -17 5 -25
10 -8 5 -10 10 -5 10 6 0 17 -5 25 -10z"/>
</g>
</svg>
